<?xml version="1.0" encoding="utf-8"?>
<!-- Generator: Adobe Illustrator 22.0.1, SVG Export Plug-In . SVG Version: 6.00 Build 0)  -->
<svg version="1.1" id="Layer_1" xmlns="http://www.w3.org/2000/svg" xmlns:xlink="http://www.w3.org/1999/xlink" x="0px" y="0px"
	 viewBox="0 0 320 200" style="enable-background:new 0 0 320 200;" xml:space="preserve">
<style type="text/css">
@keyframes static1 {
    0%  {opacity: 1;}
    80% {opacity: 1;}
	81% {opacity: .5;}
	82% {opacity: 1;}
	83% {opacity: .4;}
}
@keyframes static2 {
    0%  {opacity: 1;}
    81% {opacity: 1;}
	82% {opacity: .4;}
	83% {opacity: 1;}
	84% {opacity: .2;}
}
@keyframes static3 {
    0%  {opacity: 1;}
    82% {opacity: 1;}
	83% {opacity: .6;}
	84% {opacity: 1;}
	85% {opacity: .4;}
}
@keyframes static4 {
    0%  {opacity: 1;}
    85% {opacity: 1;}
	86% {opacity: 0;}
	87% {opacity: 1;}
	88% {opacity: 0;}
}

.st0{
fill:#f8f8f8;

}
.first{
animation: 4s static1 infinite;
}
.second{
animation: 4s static2 infinite;
}.third{
animation: 4s static3 infinite;
}
.fourth{
animation: 4s static4 infinite;
}
	.st1{fill:none;}
</style>
<polygon class="st0 first" points="4.3,137.7 28.6,118.8 35.4,53.7 33.2,48.2 78.4,34.2 76.4,54 65.4,51.2 50,56 47.8,78.3 54.8,76.1 
	60.8,71.1 58.4,94.6 53.5,89.5 46.4,91.7 43.4,120.5 42.7,126.3 10.2,136.1 "/>
<path class="st0 second" d="M90.2,53c4.1-1.1,5.6,0.7,5,4.9L90,100.1c-0.5,4.3-2.5,6.9-6.6,8L64.6,113c-4.1,1.1-5.6-0.7-5-4.9l5.2-42.2
	c0.5-4.3,2.5-6.9,6.6-8L90.2,53z M80.4,64.4L79,64.8c-1.7,0.4-2.7,2-2.9,3.7l-3.8,30.7c-0.2,1.7,0.4,2.9,2.2,2.4l1.4-0.4
	c1.7-0.4,2.7-2,2.9-3.7l3.8-30.7C82.8,65.1,82.1,63.9,80.4,64.4z"/>
<path class="st0 third" d="M113,83.2c-0.2-3.2-0.7-4.9-3.3-4.2l-2.3,18.6l1.9,3.8l-16.8,4.4l2.9-5l5.8-46.3l-1.8-3.8l26.7-7
	c4.1-1.1,5.6,0.7,5,4.9l-2.2,18c-0.5,3.9-2,6.6-4.9,8.3l2.6,17.8l2.8,3.5l-17.5,4.6l2.2-4.8L113,83.2z M118.3,58.6
	c0.3-2.4-0.6-3.9-2.9-3.3l-2.8,0.7l-1.7,13.9l2.8-0.7c2.3-0.6,3.7-2.7,4-5.1L118.3,58.6z"/>
<path class="st0 first" d="M150.1,73.6c-0.2-3.2-0.7-4.9-3.3-4.2l-2.3,18.6l1.9,3.8l-16.8,4.4l2.9-5l5.8-46.3l-1.8-3.8l26.7-7
	c4.1-1.1,5.6,0.7,5,4.9l-2.2,18c-0.5,3.9-2,6.6-4.9,8.3l2.6,17.8l2.8,3.5l-17.5,4.6l2.2-4.8L150.1,73.6z M155.3,48.9
	c0.3-2.4-0.6-3.9-2.9-3.3l-2.8,0.7l-1.7,13.9l2.8-0.7c2.3-0.6,3.7-2.7,4-5.1L155.3,48.9z"/>
<path class="st0 first" d="M184.9,50.6l6.7-1.7l4.6-3.3L194.5,59l-4.1-1l-6.7,1.7l-1.7,13.9l7.1-1.9l9.1-6.6l-1.7,13.5l-30,7.8l2.9-5
	l5.8-46.3l-1.8-3.8l30-7.8L201.8,37l-8-2.2l-7.1,1.9L184.9,50.6z"/>
<path class="st0 third" d="M221.5,27.6l-0.7,0.2c-1.7,0.4-2.7,2-2.9,3.7l-0.5,3.6c-0.3,2.6,0.1,3.4,2,4l10.9,3.7c2.4,0.8,3.1,2.8,2.7,6.1
	l-1.8,14.3c-0.5,4.3-2.5,6.9-6.7,8l-18.4,4.8c-4.2,1.1-5.6-0.7-5-4.9l2.2-17.7l10.7,3.6l-0.7,5.4c-0.2,1.7,0.5,2.8,2.2,2.4l1.6-0.4
	c1.7-0.4,2.7-2,2.9-3.7l0.4-3.5c0.3-2.6-0.1-3.4-2-4l-11-3.6c-2.4-0.8-3-2.9-2.6-6.2l1.8-14.4c0.5-4.3,2.5-6.9,6.6-8l17.6-4.6
	c4.2-1.1,5.6,0.7,5,4.9l-2.1,17.2L223,34.9l0.6-4.9C223.8,28.3,223.1,27.2,221.5,27.6z"/>
<path class="st0 second" d="M268.1,20.4l-7.8-3.5l-0.6,0.2l-5.2,42.2l1.8,3.8l-16.7,4.3l2.9-5l5.2-42.2l-0.5,0.1l-9.3,8l1.8-14.3l30.2-7.9
	L268.1,20.4z"/>
<path class="st0 first" d="M16.5,137.6l26.5-6.9c4.1-1.1,5.6,0.7,5,4.9l-2.5,19.8c-0.5,4.3-2.5,6.9-6.6,8l-12.1,3.2l-2.2,18l1.8,3.8
	l-16.8,4.4l2.9-5l5.8-46.3L16.5,137.6z M35.2,145.6c0.3-2.4-0.6-3.9-2.9-3.3l-2.5,0.7l-1.8,14.5l2.5-0.7c2.3-0.6,3.7-2.7,4-5.1
	L35.2,145.6z"/>
<path class="st0 third" d="M62.5,147.9l6.7-1.7l4.6-3.3l-1.7,13.4l-4.1-1l-6.7,1.7l-1.7,13.9l7.1-1.9l9.1-6.6l-1.7,13.5l-30,7.8l2.9-5
	l5.8-46.3l-1.8-3.8l30-7.8l-1.7,13.5l-8-2.2l-7.1,1.9L62.5,147.9z"/>
<path class="st0 third" d="M111.5,126.6l-7.8-3.5l-0.6,0.2l-5.2,42.2l1.8,3.8L83,173.6l2.9-5l5.2-42.2l-0.5,0.1l-9.3,8l1.8-14.3l30.2-7.9
	L111.5,126.6z"/>
<path class="st0 third" d="M126,131.3l6.7-1.7l4.6-3.3l-1.7,13.4l-4.1-1l-6.7,1.7l-1.7,13.9l7.1-1.9l9.1-6.6l-1.7,13.5l-30,7.8l2.9-5
	l5.8-46.3l-1.8-3.8l30-7.8l-1.7,13.5l-8-2.2l-7.1,1.9L126,131.3z"/>
<path class="st0 second" d="M160.5,136.3c-0.2-3.2-0.7-4.9-3.3-4.2l-2.3,18.6l1.9,3.8l-16.8,4.4l2.9-5l5.8-46.3l-1.8-3.8l26.7-7
	c4.1-1.1,5.6,0.7,5,4.9l-2.2,18c-0.5,3.9-2,6.6-4.9,8.3l2.6,17.8l2.8,3.5l-17.5,4.6l2.2-4.8L160.5,136.3z M165.8,111.6
	c0.3-2.4-0.6-3.9-2.9-3.3l-2.8,0.7l-1.7,13.9l2.8-0.7c2.3-0.6,3.7-2.7,4-5.1L165.8,111.6z"/>
<path class="st0" d="M199,98.9l-0.7,0.2c-1.7,0.4-2.7,2-2.9,3.7l-0.5,3.6c-0.3,2.6,0.1,3.4,2,4l10.9,3.7c2.4,0.8,3.1,2.8,2.7,6.1
	l-1.8,14.3c-0.5,4.3-2.5,6.9-6.7,8l-18.4,4.8c-4.2,1.1-5.6-0.7-5-4.9l2.2-17.7l10.7,3.6l-0.7,5.4c-0.2,1.7,0.5,2.8,2.2,2.4l1.6-0.4
	c1.7-0.4,2.7-2,2.9-3.7l0.4-3.5c0.3-2.6-0.1-3.4-2-4l-11-3.6c-2.4-0.8-3-2.9-2.6-6.2l1.8-14.4c0.5-4.3,2.5-6.9,6.6-8l17.6-4.6
	c4.2-1.1,5.6,0.7,5,4.9l-2.1,17.2l-10.7-3.6l0.6-4.9C201.4,99.6,200.7,98.5,199,98.9z"/>
<path class="st0 first" d="M244,78.3c4.1-1.1,5.6,0.7,5,4.9l-5.2,42.2c-0.5,4.3-2.5,6.9-6.6,8l-18.8,4.9c-4.1,1.1-5.6-0.7-5-4.9l5.2-42.2
	c0.5-4.3,2.5-6.9,6.6-8L244,78.3z M234.2,89.7l-1.4,0.4c-1.7,0.4-2.7,2-2.9,3.7l-3.8,30.7c-0.2,1.7,0.4,2.9,2.2,2.4l1.4-0.4
	c1.7-0.4,2.7-2,2.9-3.7l3.8-30.7C236.6,90.4,235.9,89.3,234.2,89.7z"/>
<path class="st0 fourth" d="M254.2,67.7l20.5-5.4l-1.8,5.4l2.9,25.1l3.3-26.7l1.8-16.5L315,38.8l-22.3,16.3l-8.2,66l-13.5,3.5l-4.6-34.3
	l-3.9,31.6l2,4.4l-18.2,4.7l3.4-5.8l6.6-53.2L254.2,67.7z"/>
<rect x="290.4" y="104.9" class="st1" width="8.3" height="45.3"/>
</svg>
